<?xml version="1.0" standalone="no"?>
<!DOCTYPE svg PUBLIC "-//W3C//DTD SVG 20010904//EN"
 "http://www.w3.org/TR/2001/REC-SVG-20010904/DTD/svg10.dtd">
<svg version="1.0" xmlns="http://www.w3.org/2000/svg"
 width="128.000000pt" height="128.000000pt" viewBox="0 0 128.000000 128.000000"
 preserveAspectRatio="xMidYMid meet">
<metadata>
Created by potrace 1.15, written by Peter Selinger 2001-2017
</metadata>
<g transform="translate(0.000000,128.000000) scale(0.100000,-0.100000)"
fill="#B6212D" stroke="none">
<path d="M460 1257 c-119 -38 -178 -74 -270 -167 -75 -75 -133 -159 -146 -210
-2 -8 -11 -35 -21 -60 -14 -36 -18 -74 -18 -185 0 -123 3 -146 22 -187 12 -27
20 -48 18 -48 -10 0 51 -109 84 -150 85 -107 184 -179 304 -223 53 -18 83 -22
202 -22 121 0 150 3 213 24 39 13 72 28 72 34 0 6 3 8 6 4 11 -11 108 57 173
123 36 36 77 88 91 115 14 27 31 56 38 63 6 7 13 20 13 28 2 17 4 24 12 44 36
89 37 286 3 395 -2 6 -4 13 -5 17 -1 5 -15 36 -33 70 -62 125 -169 233 -288
292 -96 47 -144 58 -270 62 -110 4 -134 1 -200 -19z m266 -274 c-6 -42 -33
-194 -42 -231 -4 -21 -2 -23 28 -21 75 5 148 -1 148 -13 0 -6 -39 -77 -87
-157 -49 -80 -91 -153 -95 -163 -19 -48 -90 -138 -108 -138 -11 0 -20 1 -20 3
0 3 22 131 45 260 l5 27 -90 0 c-58 0 -90 4 -90 11 0 6 48 90 106 187 161 268
164 272 186 272 17 0 19 -5 14 -37z"/>
</g>
</svg>
