<?xml version="1.0" standalone="no"?>
<!DOCTYPE svg PUBLIC "-//W3C//DTD SVG 20010904//EN"
 "http://www.w3.org/TR/2001/REC-SVG-20010904/DTD/svg10.dtd">
<svg version="1.0" xmlns="http://www.w3.org/2000/svg"
 width="384.000000pt" height="512.000000pt" viewBox="0 0 384.000000 512.000000"
 preserveAspectRatio="xMidYMid meet">
<metadata>
Created by potrace 1.15, written by Peter Selinger 2001-2017
</metadata>
<g transform="translate(0.000000,512.000000) scale(0.100000,-0.100000)"
fill="#B6212D" stroke="none">
<path d="M0 4773 c0 -35 340 -3914 344 -3928 4 -11 1550 -525 1579 -525 20 0
1559 509 1568 519 6 6 350 3888 349 3939 l0 22 -1920 0 -1920 0 0 -27z m3104
-985 c-13 -117 -23 -223 -23 -235 -1 -19 -72 -52 -583 -270 l-582 -248 561 -3
562 -2 -5 -33 c-2 -17 -31 -345 -65 -727 -33 -381 -61 -695 -63 -697 -6 -6
-959 -283 -973 -283 -12 0 -971 280 -981 286 -4 2 -62 659 -62 702 l0 32 238
-2 237 -3 15 -187 c8 -102 17 -189 20 -191 3 -3 123 -35 267 -71 l262 -67 273
77 c150 42 274 77 275 78 1 0 8 123 17 271 9 149 18 289 20 313 l4 42 -833 0
-832 0 -6 63 c-19 196 -29 389 -21 396 5 5 261 113 569 241 308 128 571 238
585 246 21 11 -71 13 -592 14 -582 0 -618 1 -618 18 -1 9 -13 115 -29 235
l-27 217 1206 0 1206 0 -22 -212z"/>
</g>
</svg>
