<?xml version="1.0" standalone="no"?>
<!DOCTYPE svg PUBLIC "-//W3C//DTD SVG 20010904//EN"
 "http://www.w3.org/TR/2001/REC-SVG-20010904/DTD/svg10.dtd">
<svg version="1.0" xmlns="http://www.w3.org/2000/svg"
 width="600.000000pt" height="600.000000pt" viewBox="0 0 600.000000 600.000000"
 preserveAspectRatio="xMidYMid meet">
<metadata>
Created by potrace 1.15, written by Peter Selinger 2001-2017
</metadata>
<g transform="translate(0.000000,600.000000) scale(0.100000,-0.100000)"
fill="#B6212D" stroke="none">
<path d="M413 5235 c-139 -38 -282 -151 -346 -273 -72 -139 -67 21 -67 -1962
0 -1972 -5 -1822 63 -1955 40 -80 153 -193 234 -234 131 -66 -76 -61 2703 -61
2205 0 2533 2 2583 15 190 49 353 212 402 402 23 86 23 3580 0 3666 -50 191
-211 352 -401 402 -51 13 -349 15 -2589 14 -2142 0 -2538 -2 -2582 -14z m5017
-789 l0 -234 -172 -139 c-194 -156 -640 -509 -1098 -868 -168 -132 -366 -289
-440 -350 -326 -269 -495 -373 -657 -405 -175 -35 -375 69 -783 405 -74 61
-346 277 -605 480 -259 203 -613 483 -787 622 l-318 254 0 234 0 235 2430 0
2430 0 0 -234z m-4665 -1128 c94 -74 361 -284 595 -468 234 -184 506 -400 605
-481 373 -303 619 -440 873 -484 351 -61 678 65 1147 445 83 67 359 286 615
488 256 201 542 426 635 500 94 74 176 139 183 145 9 7 12 -207 12 -1067 l0
-1076 -2430 0 -2430 0 0 1076 c0 860 3 1074 13 1067 6 -6 89 -71 182 -145z"/>
</g>
</svg>
