<?xml version="1.0" standalone="no"?>
<!DOCTYPE svg PUBLIC "-//W3C//DTD SVG 20010904//EN"
 "http://www.w3.org/TR/2001/REC-SVG-20010904/DTD/svg10.dtd">
<svg version="1.0" xmlns="http://www.w3.org/2000/svg"
 width="496.000000pt" height="512.000000pt" viewBox="0 0 496.000000 512.000000"
 preserveAspectRatio="xMidYMid meet">
<metadata>
Created by potrace 1.15, written by Peter Selinger 2001-2017
</metadata>
<g transform="translate(0.000000,512.000000) scale(0.100000,-0.100000)"
fill="#B6212D" stroke="none">
<path d="M2150 5029 c-594 -72 -1113 -327 -1496 -733 -363 -385 -584 -868
-644 -1411 -15 -137 -12 -463 5 -605 58 -466 251 -924 542 -1285 103 -128 311
-330 433 -421 193 -144 406 -261 612 -338 105 -39 162 -45 208 -21 58 30 60
42 60 405 0 311 -1 331 -17 326 -53 -16 -252 -26 -341 -17 -265 28 -407 118
-487 309 -76 181 -163 299 -279 377 -108 72 -122 121 -41 137 82 17 244 -47
333 -132 28 -27 76 -86 106 -133 103 -156 218 -237 367 -259 85 -13 195 0 295
34 l66 23 19 75 c24 92 57 163 109 227 l39 50 -106 12 c-264 31 -406 67 -563
143 -91 44 -115 62 -195 142 -69 69 -101 110 -132 171 -88 172 -126 355 -126
610 0 271 32 358 212 585 20 25 20 25 0 95 -25 89 -35 257 -20 355 6 41 23
114 38 162 25 84 28 88 59 94 95 18 315 -69 567 -223 l87 -54 83 20 c162 40
270 53 487 58 237 6 371 -7 576 -53 l111 -24 109 66 c122 75 278 152 369 183
83 27 175 36 197 19 23 -18 66 -170 79 -282 12 -106 5 -199 -22 -313 l-20 -81
70 -87 c141 -176 181 -292 181 -523 0 -341 -78 -585 -243 -758 -143 -151 -320
-230 -637 -283 -63 -11 -148 -23 -187 -27 -40 -3 -73 -9 -73 -11 0 -3 15 -22
33 -44 49 -56 84 -127 110 -216 21 -76 22 -91 22 -583 0 -473 1 -508 18 -534
21 -31 72 -56 116 -56 82 0 410 148 596 270 591 387 970 976 1096 1705 27 153
37 540 19 696 -45 393 -175 755 -385 1069 -100 149 -179 245 -311 376 -375
374 -852 611 -1404 700 -122 19 -579 28 -700 13z"/>
</g>
</svg>
