<?xml version="1.0" standalone="no"?>
<!DOCTYPE svg PUBLIC "-//W3C//DTD SVG 20010904//EN"
 "http://www.w3.org/TR/2001/REC-SVG-20010904/DTD/svg10.dtd">
<svg version="1.0" xmlns="http://www.w3.org/2000/svg"
 width="384.000000pt" height="512.000000pt" viewBox="0 0 384.000000 512.000000"
 preserveAspectRatio="xMidYMid meet">
<metadata>
Created by potrace 1.15, written by Peter Selinger 2001-2017
</metadata>
<g transform="translate(0.000000,512.000000) scale(0.100000,-0.100000)"
fill="#B6212D" stroke="none">
<path d="M0 4770 c0 -25 335 -3859 343 -3914 2 -16 126 -61 777 -278 426 -142
783 -258 793 -258 21 0 1569 509 1578 519 6 6 350 3888 349 3939 l0 22 -1920
0 -1920 0 0 -30z m3120 -782 c0 -2 -9 -97 -20 -213 -11 -115 -20 -218 -20
-227 0 -17 -51 -18 -920 -18 -729 0 -920 -3 -920 -12 0 -7 9 -119 20 -248 11
-129 20 -238 20 -242 0 -5 394 -8 875 -8 l875 0 0 -32 c0 -73 -130 -1432 -137
-1439 -9 -7 -953 -269 -975 -269 -17 -1 -971 262 -979 269 -4 3 -19 159 -33
346 -14 187 -28 355 -30 373 l-5 32 235 0 c216 0 234 -1 235 -17 0 -10 8 -97
17 -193 l17 -174 270 -73 270 -74 271 73 271 73 27 290 c15 159 30 302 32 318
l6 27 -836 0 -835 0 -5 33 c-3 17 -31 322 -61 677 -31 355 -58 664 -61 688
l-6 42 1201 0 c660 0 1201 -1 1201 -2z"/>
</g>
</svg>
