<?xml version="1.0" standalone="no"?>
<!DOCTYPE svg PUBLIC "-//W3C//DTD SVG 20010904//EN"
 "http://www.w3.org/TR/2001/REC-SVG-20010904/DTD/svg10.dtd">
<svg version="1.0" xmlns="http://www.w3.org/2000/svg"
 width="400.000000pt" height="400.000000pt" viewBox="0 0 400.000000 400.000000"
 preserveAspectRatio="xMidYMid meet">
<metadata>
Created by potrace 1.15, written by Peter Selinger 2001-2017
</metadata>
<g transform="translate(0.000000,400.000000) scale(0.100000,-0.100000)"
fill="#B6212D" stroke="none">
<path d="M2268 3590 c-110 -153 -152 -272 -152 -430 0 -328 231 -635 582 -773
73 -28 86 -30 255 -34 173 -5 181 -4 265 22 48 15 94 34 103 41 8 8 21 14 27
14 14 0 117 82 155 124 56 60 144 202 133 213 -3 4 -35 -23 -70 -59 -139 -139
-309 -183 -556 -144 -105 17 -162 36 -265 88 -311 157 -511 501 -466 803 7 47
21 103 31 124 24 48 35 91 24 91 -5 -1 -35 -37 -66 -80z"/>
<path d="M1568 3452 c-21 -31 -58 -84 -83 -117 -25 -33 -48 -67 -52 -75 -3 -8
-10 -17 -14 -20 -21 -15 -101 -198 -123 -284 -23 -86 -26 -119 -26 -261 0
-146 3 -173 29 -278 28 -109 89 -263 118 -298 7 -8 13 -19 13 -23 0 -6 50 -86
60 -96 3 -3 18 -25 34 -50 34 -53 180 -199 263 -262 178 -137 371 -228 563
-265 109 -21 402 -24 515 -4 301 51 542 194 714 425 88 117 173 286 145 286
-4 0 -42 -38 -86 -85 -113 -120 -209 -185 -393 -265 -11 -4 -58 -19 -105 -31
-75 -20 -108 -23 -280 -23 -179 0 -203 2 -295 27 -425 113 -754 373 -939 744
-160 319 -167 664 -21 954 29 56 29 59 13 59 -7 -1 -30 -26 -50 -58z"/>
<path d="M704 3167 c-11 -12 -48 -58 -82 -102 -34 -44 -80 -102 -102 -130 -94
-116 -169 -271 -218 -445 -25 -90 -26 -107 -27 -330 0 -251 6 -301 62 -485 33
-112 59 -174 123 -300 224 -436 626 -787 1095 -955 182 -66 348 -90 610 -90
296 0 523 49 748 161 83 41 92 46 162 88 117 71 294 237 388 364 112 151 198
310 180 328 -7 7 -16 1 -26 -14 -37 -56 -257 -257 -282 -257 -2 0 -20 -10 -38
-23 -113 -77 -311 -149 -514 -187 -99 -19 -139 -21 -325 -18 -253 5 -415 33
-582 99 -27 10 -53 19 -58 19 -19 0 -244 113 -323 163 -340 213 -602 509 -758
857 -110 245 -158 518 -136 770 14 156 59 333 113 439 34 66 29 90 -10 48z"/>
</g>
</svg>
