<?xml version="1.0" standalone="no"?>
<!DOCTYPE svg PUBLIC "-//W3C//DTD SVG 20010904//EN"
 "http://www.w3.org/TR/2001/REC-SVG-20010904/DTD/svg10.dtd">
<svg version="1.0" xmlns="http://www.w3.org/2000/svg"
 width="448.000000pt" height="512.000000pt" viewBox="0 0 448.000000 512.000000"
 preserveAspectRatio="xMidYMid meet">
<metadata>
Created by potrace 1.15, written by Peter Selinger 2001-2017
</metadata>
<g transform="translate(0.000000,512.000000) scale(0.100000,-0.100000)"
fill="#B6212D" stroke="none">
<path d="M328 4781 c-145 -47 -269 -174 -312 -320 -14 -49 -16 -245 -16 -1902
0 -1785 1 -1849 19 -1908 46 -147 172 -272 320 -315 49 -14 245 -16 1902 -16
1785 0 1849 1 1908 19 147 46 272 172 315 320 14 49 16 245 16 1901 0 1656 -2
1852 -16 1901 -43 148 -168 274 -315 320 -59 18 -122 19 -1912 18 -1768 0
-1855 -1 -1909 -18z m3257 -2036 c104 -22 219 -82 288 -152 68 -69 130 -154
120 -164 -5 -4 -75 -50 -158 -103 l-150 -96 -15 23 c-34 50 -94 107 -134 127
-58 28 -181 28 -235 0 -72 -36 -108 -110 -96 -195 16 -105 61 -139 357 -269
207 -91 298 -146 394 -241 87 -87 122 -146 150 -254 20 -79 22 -228 5 -301
-47 -198 -201 -347 -426 -412 -71 -20 -101 -23 -260 -22 -166 0 -187 2 -268
27 -196 60 -338 163 -442 321 -33 48 -36 59 -24 70 15 14 289 173 307 178 5 2
30 -23 54 -54 59 -75 131 -133 198 -160 45 -18 76 -22 170 -22 107 -1 119 1
173 27 98 49 137 123 116 226 -20 97 -83 142 -397 279 -176 78 -259 129 -343
212 -86 85 -131 166 -154 278 -71 333 117 615 456 681 71 14 238 12 314 -4z
m-1155 -777 c0 -865 1 -852 -70 -994 -94 -192 -283 -294 -544 -294 -61 0 -142
7 -181 15 -101 21 -223 85 -300 156 -57 54 -145 173 -145 198 0 7 288 186 320
199 4 1 27 -27 51 -64 75 -116 167 -159 290 -136 72 13 112 40 142 95 l22 42
3 778 3 777 204 0 205 0 0 -772z"/>
</g>
</svg>
