<?xml version="1.0" standalone="no"?>
<!DOCTYPE svg PUBLIC "-//W3C//DTD SVG 20010904//EN"
 "http://www.w3.org/TR/2001/REC-SVG-20010904/DTD/svg10.dtd">
<svg version="1.0" xmlns="http://www.w3.org/2000/svg"
 width="600.000000pt" height="686.000000pt" viewBox="0 0 600.000000 686.000000"
 preserveAspectRatio="xMidYMid meet">
<metadata>
Created by potrace 1.15, written by Peter Selinger 2001-2017
</metadata>
<g transform="translate(0.000000,686.000000) scale(0.100000,-0.100000)"
fill="#B6212D" stroke="none">
<path d="M619 6429 c-287 -37 -541 -271 -604 -554 -26 -113 -17 -294 18 -396
66 -194 189 -334 372 -425 119 -59 209 -77 350 -71 254 11 468 142 599 368
100 173 118 413 46 611 -92 253 -319 433 -590 468 -86 11 -100 11 -191 -1z"/>
<path d="M4335 4534 c-272 -42 -449 -107 -640 -238 -144 -98 -251 -214 -362
-392 -9 -15 -12 40 -12 259 l-1 277 -600 0 -600 0 0 -2010 0 -2010 624 0 625
0 4 1137 c4 1109 4 1141 25 1249 82 430 304 626 707 627 358 0 542 -167 622
-563 15 -76 17 -204 20 -1267 l4 -1183 625 0 625 0 -4 1343 c-4 1462 -2 1410
-62 1695 -115 546 -392 874 -853 1011 -142 43 -297 63 -512 66 -113 2 -218 1
-235 -1z"/>
<path d="M90 2430 l0 -2010 630 0 630 0 0 2010 0 2010 -630 0 -630 0 0 -2010z"/>
</g>
</svg>
