<?xml version="1.0" standalone="no"?>
<!DOCTYPE svg PUBLIC "-//W3C//DTD SVG 20010904//EN"
 "http://www.w3.org/TR/2001/REC-SVG-20010904/DTD/svg10.dtd">
<svg version="1.0" xmlns="http://www.w3.org/2000/svg"
 width="600.000000pt" height="600.000000pt" viewBox="0 0 600.000000 600.000000"
 preserveAspectRatio="xMidYMid meet">
<metadata>
Created by potrace 1.15, written by Peter Selinger 2001-2017
</metadata>
<g transform="translate(0.000000,600.000000) scale(0.100000,-0.100000)"
fill="#B6212D" stroke="none">
<path d="M230 5202 l0 -48 286 -344 c158 -190 293 -359 300 -377 11 -26 14
-273 14 -1377 1 -1305 0 -1347 -18 -1388 -11 -24 -162 -216 -336 -427 l-316
-383 0 -49 0 -49 850 0 850 0 0 50 0 50 -312 378 c-172 207 -323 397 -337 422
l-26 45 -2 1130 -2 1130 20 -40 c11 -22 341 -742 734 -1600 l714 -1560 94 -3
93 -3 630 1598 629 1598 3 -1280 c1 -704 0 -1294 -3 -1312 -5 -26 -55 -80
-250 -270 l-245 -238 0 -52 0 -53 1115 0 1115 0 0 49 0 49 -245 244 -245 243
0 1660 c1 1284 3 1665 13 1680 7 11 119 123 250 249 l237 228 0 49 0 49 -789
0 -789 0 -230 -572 c-127 -315 -376 -936 -553 -1380 -178 -445 -326 -808 -329
-808 -3 0 -230 494 -505 1098 -274 603 -557 1224 -628 1380 l-130 282 -828 0
-829 0 0 -48z"/>
</g>
</svg>
