<?xml version="1.0" standalone="no"?>
<!DOCTYPE svg PUBLIC "-//W3C//DTD SVG 20010904//EN"
 "http://www.w3.org/TR/2001/REC-SVG-20010904/DTD/svg10.dtd">
<svg version="1.0" xmlns="http://www.w3.org/2000/svg"
 width="576.000000pt" height="512.000000pt" viewBox="0 0 576.000000 512.000000"
 preserveAspectRatio="xMidYMid meet">
<metadata>
Created by potrace 1.15, written by Peter Selinger 2001-2017
</metadata>
<g transform="translate(0.000000,512.000000) scale(0.100000,-0.100000)"
fill="#B6212D" stroke="none">
<path d="M0 2560 l0 -960 800 0 800 0 0 -160 0 -160 640 0 640 0 0 160 0 160
1440 0 1440 0 0 960 0 960 -2880 0 -2880 0 0 -960z m1600 0 l0 -640 -160 0
-160 0 0 480 0 480 -160 0 -160 0 0 -480 0 -480 -320 0 -320 0 0 640 0 640
640 0 640 0 0 -640z m1600 0 l0 -640 -320 0 -320 0 0 -160 0 -160 -320 0 -320
0 0 800 0 800 640 0 640 0 0 -640z m2240 0 l0 -640 -160 0 -160 0 0 480 0 480
-160 0 -160 0 0 -480 0 -480 -160 0 -160 0 0 480 0 480 -160 0 -160 0 0 -480
0 -480 -320 0 -320 0 0 640 0 640 960 0 960 0 0 -640z"/>
<path d="M2560 2560 l0 -320 160 0 160 0 0 320 0 320 -160 0 -160 0 0 -320z"/>
</g>
</svg>
