<?xml version="1.0" standalone="no"?>
<!DOCTYPE svg PUBLIC "-//W3C//DTD SVG 20010904//EN"
 "http://www.w3.org/TR/2001/REC-SVG-20010904/DTD/svg10.dtd">
<svg version="1.0" xmlns="http://www.w3.org/2000/svg"
 width="600.000000pt" height="600.000000pt" viewBox="0 0 600.000000 600.000000"
 preserveAspectRatio="xMidYMid meet">
<metadata>
Created by potrace 1.15, written by Peter Selinger 2001-2017
</metadata>
<g transform="translate(0.000000,600.000000) scale(0.100000,-0.100000)"
fill="#B6212D" stroke="none">
<path d="M3945 5425 c-392 -72 -717 -312 -891 -657 -50 -99 -86 -202 -110
-310 -22 -103 -28 -332 -11 -441 l13 -89 -70 7 c-261 23 -478 63 -714 131
-633 181 -1225 558 -1660 1057 l-86 99 -38 -76 c-139 -276 -167 -616 -77 -918
67 -225 220 -451 406 -599 l72 -57 -42 5 c-143 15 -292 57 -425 119 l-75 34 6
-107 c10 -164 57 -335 134 -488 99 -195 296 -397 494 -507 76 -42 229 -104
281 -113 144 -26 -213 -61 -411 -41 l-73 8 7 -23 c41 -141 150 -319 271 -448
200 -211 442 -336 728 -377 61 -8 115 -16 121 -18 15 -4 -240 -169 -355 -230
-256 -134 -535 -221 -835 -261 -123 -16 -462 -21 -556 -9 -87 12 -65 -6 171
-137 526 -290 1137 -433 1780 -416 635 18 1195 175 1704 479 830 497 1430
1373 1625 2378 38 192 52 333 58 567 l6 233 91 72 c108 86 297 273 382 378 80
99 138 180 132 185 -3 3 -52 -13 -109 -34 -170 -65 -361 -115 -514 -137 l-50
-7 65 48 c140 104 256 233 339 377 44 77 115 237 108 244 -2 2 -73 -31 -157
-74 -183 -91 -317 -142 -495 -187 l-130 -32 -45 45 c-147 147 -372 267 -597
317 -100 23 -368 28 -468 10z"/>
</g>
</svg>
